<svg width="1920" height="1000" viewBox="0 0 1920 1000" fill="none" xmlns="http://www.w3.org/2000/svg">
<g clip-path="url(#clip0_44_3)">
<path d="M1920 0H0V1000H1920V0Z" fill="#0A0A0A"/>
<path fill-rule="evenodd" clip-rule="evenodd" d="M248.587 621.205C254.285 517.79 260.362 412.915 0 412.915V1000H935.39C888.96 394.955 218.846 1161.16 248.587 621.205Z" fill="url(#paint0_linear_44_3)"/>
<path fill-rule="evenodd" clip-rule="evenodd" d="M597.446 776.71C124.747 893.02 865.531 0 0 0V412.915C260.362 412.915 254.285 517.79 248.587 621.205C232.723 909.19 415.944 825.62 597.446 776.71Z" fill="url(#paint1_linear_44_3)"/>
<path fill-rule="evenodd" clip-rule="evenodd" d="M1243.81 1000C1085.46 50.46 455.923 945.1 446.63 424.805C429.691 636.215 358.392 835.53 597.446 776.71C756.245 733.92 913.723 717.66 935.39 1000H1243.81Z" fill="url(#paint2_linear_44_3)"/>
<path fill-rule="evenodd" clip-rule="evenodd" d="M1671.41 378.795C1665.72 482.21 1659.64 587.085 1920 587.085V0H984.61C1031.04 605.045 1701.15 -161.155 1671.41 378.795Z" fill="url(#paint3_linear_44_3)"/>
<path fill-rule="evenodd" clip-rule="evenodd" d="M1322.55 223.29C1795.25 106.98 1054.47 1000 1920 1000V587.085C1659.64 587.085 1665.72 482.21 1671.41 378.795C1687.28 90.81 1504.06 174.38 1322.55 223.29Z" fill="url(#paint4_linear_44_3)"/>
<path fill-rule="evenodd" clip-rule="evenodd" d="M676.186 0C834.538 949.54 1464.08 54.9 1473.37 575.195C1490.31 363.785 1561.61 164.47 1322.55 223.29C1163.76 266.08 1006.28 282.34 984.61 0H676.186Z" fill="url(#paint5_linear_44_3)"/>
</g>
<defs>
<linearGradient id="paint0_linear_44_3" x1="340.617" y1="1033" x2="542.361" y2="555.238" gradientUnits="userSpaceOnUse">
<stop stop-color="#0A0A0A"/>
<stop offset="1" stop-color="#FF4757"/>
</linearGradient>
<linearGradient id="paint1_linear_44_3" x1="236.061" y1="786.806" x2="370.74" y2="-2.44111" gradientUnits="userSpaceOnUse">
<stop stop-color="#0A0A0A"/>
<stop offset="1" stop-color="#FF4757"/>
</linearGradient>
<linearGradient id="paint2_linear_44_3" x1="683.271" y1="851.454" x2="1165.61" y2="469.788" gradientUnits="userSpaceOnUse">
<stop stop-color="#0A0A0A"/>
<stop offset="1" stop-color="#FF4757"/>
</linearGradient>
<linearGradient id="paint3_linear_44_3" x1="1579.38" y1="-33.0022" x2="1377.64" y2="444.762" gradientUnits="userSpaceOnUse">
<stop stop-color="#0A0A0A"/>
<stop offset="1" stop-color="#FF4757"/>
</linearGradient>
<linearGradient id="paint4_linear_44_3" x1="1683.94" y1="213.195" x2="1549.26" y2="1002.44" gradientUnits="userSpaceOnUse">
<stop stop-color="#0A0A0A"/>
<stop offset="1" stop-color="#FF4757"/>
</linearGradient>
<linearGradient id="paint5_linear_44_3" x1="1236.73" y1="148.546" x2="754.392" y2="530.212" gradientUnits="userSpaceOnUse">
<stop stop-color="#0A0A0A"/>
<stop offset="1" stop-color="#FF4757"/>
</linearGradient>
<clipPath id="clip0_44_3">
<rect width="1920" height="1000" fill="white"/>
</clipPath>
</defs>
</svg>
