<svg width="200" height="50" viewBox="0 0 200 50" fill="none" xmlns="http://www.w3.org/2000/svg">
<g clip-path="url(#clip0_1_19)">
<path d="M7.74861 17.9097H0V14.2746H19.7542V17.9097H12.0056V34.7123H7.74861V17.9097Z" fill="#FF4757"/>
<path d="M25.287 28.632C26.048 29.0504 26.818 29.4296 27.5969 29.7696C28.3847 30.1009 29.1994 30.3842 30.041 30.6196C30.8825 30.8462 31.7644 31.0205 32.6865 31.1426C33.6176 31.2646 34.6069 31.3257 35.6543 31.3257C36.9167 31.3257 37.991 31.2472 38.8773 31.0903C39.7636 30.9247 40.4843 30.7024 41.0394 30.4234C41.6034 30.1357 42.0108 29.7958 42.2615 29.4035C42.5211 29.0112 42.6509 28.5841 42.6509 28.122C42.6509 27.3811 42.3331 26.797 41.6974 26.3699C41.0618 25.934 40.0815 25.7161 38.7565 25.7161C38.1745 25.7161 37.5613 25.7553 36.9167 25.8337C36.2721 25.9035 35.6185 25.9819 34.956 26.0691C34.3025 26.1563 33.6534 26.2391 33.0088 26.3176C32.3731 26.3873 31.7733 26.4222 31.2093 26.4222C30.2693 26.4222 29.365 26.3045 28.4966 26.0691C27.6371 25.8337 26.8717 25.4807 26.2002 25.01C25.5377 24.5392 25.0095 23.9508 24.6156 23.2447C24.2217 22.5386 24.0247 21.7148 24.0247 20.7734C24.0247 20.2154 24.1008 19.6619 24.253 19.1127C24.4142 18.5635 24.6648 18.0405 25.005 17.5436C25.3542 17.038 25.8018 16.5716 26.3479 16.1445C26.8941 15.7086 27.5521 15.3337 28.322 15.0199C29.1009 14.7061 29.9962 14.462 31.0079 14.2877C32.0285 14.1046 33.1879 14.0131 34.486 14.0131C35.426 14.0131 36.3706 14.0654 37.3195 14.17C38.2685 14.2659 39.1907 14.4054 40.0859 14.5884C40.9902 14.7715 41.8586 14.9938 42.6912 15.2553C43.5238 15.5081 44.2982 15.7914 45.0144 16.1052L43.1478 19.4527C42.5569 19.1999 41.9213 18.9689 41.2409 18.7597C40.5604 18.5417 39.8487 18.3543 39.1056 18.1974C38.3625 18.0405 37.5926 17.9184 36.7958 17.8313C36.008 17.7354 35.2022 17.6874 34.3786 17.6874C33.2058 17.6874 32.2389 17.7702 31.4779 17.9359C30.7258 18.1015 30.126 18.3151 29.6784 18.5766C29.2307 18.8294 28.9174 19.1171 28.7383 19.4396C28.5682 19.7534 28.4832 20.0672 28.4832 20.3811C28.4832 20.9913 28.7652 21.4925 29.3292 21.8848C29.8932 22.2684 30.7527 22.4601 31.9076 22.4601C32.3731 22.4601 32.9058 22.4296 33.5057 22.3686C34.1145 22.2989 34.7501 22.2248 35.4126 22.1463C36.0841 22.0679 36.7645 21.9981 37.4538 21.9371C38.1522 21.8674 38.8281 21.8325 39.4816 21.8325C40.7171 21.8325 41.8094 21.9676 42.7583 22.2379C43.7163 22.5081 44.5176 22.896 45.1622 23.4016C45.8068 23.8985 46.2947 24.5044 46.6259 25.2192C46.9572 25.9253 47.1228 26.7186 47.1228 27.599C47.1228 28.7758 46.8408 29.8263 46.2768 30.7503C45.7217 31.6656 44.9249 32.4415 43.8864 33.0778C42.8568 33.7055 41.6124 34.1849 40.1531 34.5162C38.6938 34.8387 37.0689 35 35.2783 35C34.0966 35 32.9417 34.9259 31.8136 34.7777C30.6856 34.6382 29.6023 34.4377 28.5638 34.1762C27.5342 33.906 26.5494 33.5878 25.6093 33.2217C24.6783 32.8468 23.8143 32.4371 23.0175 31.9925L25.287 28.632Z" fill="#FF4757"/>
<path d="M51.0173 14.2746H55.2743V25.533C55.2743 26.457 55.4041 27.2808 55.6637 28.0044C55.9234 28.7192 56.3083 29.325 56.8186 29.8219C57.3379 30.3188 57.978 30.698 58.739 30.9595C59.5 31.2123 60.3863 31.3387 61.398 31.3387C62.4007 31.3387 63.2825 31.2123 64.0435 30.9595C64.8134 30.698 65.4536 30.3188 65.9639 29.8219C66.4831 29.325 66.8726 28.7192 67.1322 28.0044C67.3918 27.2808 67.5217 26.457 67.5217 25.533V14.2746H71.7787V26.0299C71.7787 27.3724 71.5459 28.5928 71.0804 29.6912C70.6148 30.7895 69.9389 31.731 69.0526 32.5156C68.1663 33.3001 67.0785 33.906 65.7893 34.3331C64.5091 34.7603 63.0453 34.9738 61.398 34.9738C59.7507 34.9738 58.2824 34.7603 56.9932 34.3331C55.713 33.906 54.6297 33.3001 53.7434 32.5156C52.857 31.731 52.1811 30.7895 51.7156 29.6912C51.25 28.5928 51.0173 27.3724 51.0173 26.0299V14.2746Z" fill="#FF4757"/>
<path d="M76.9489 14.2746H81.2059L94.2859 20.9433V14.2746H98.5429V34.7123H94.2859V25.3369L81.2059 18.7073V34.7123H76.9489V14.2746Z" fill="#FF4757"/>
<path d="M104.479 14.2746H112.174C114.421 14.2746 116.372 14.51 118.029 14.9807C119.685 15.4514 121.055 16.127 122.138 17.0075C123.23 17.8792 124.04 18.9427 124.569 20.198C125.106 21.4446 125.374 22.8481 125.374 24.4085C125.374 25.8904 125.11 27.2634 124.582 28.5274C124.054 29.7827 123.248 30.8724 122.165 31.7964C121.081 32.7117 119.712 33.4309 118.055 33.9539C116.399 34.4682 114.448 34.7254 112.2 34.7254L104.479 34.7123V14.2746ZM113.221 31.1295C114.492 31.1295 115.607 30.9726 116.565 30.6588C117.523 30.3362 118.32 29.8829 118.955 29.2989C119.6 28.7148 120.083 28.0087 120.406 27.1806C120.728 26.3524 120.889 25.4284 120.889 24.4085C120.889 23.406 120.728 22.5037 120.406 21.7017C120.083 20.891 119.6 20.2067 118.955 19.6488C118.32 19.0822 117.523 18.6463 116.565 18.3412C115.607 18.0361 114.492 17.8836 113.221 17.8836H108.736V31.1295H113.221Z" fill="white"/>
<path d="M128.409 24.4346C128.409 22.8917 128.7 21.4795 129.282 20.198C129.864 18.9166 130.679 17.8182 131.726 16.9029C132.783 15.9788 134.045 15.264 135.513 14.7584C136.991 14.2528 138.624 14 140.415 14C142.197 14 143.826 14.2528 145.303 14.7584C146.78 15.264 148.043 15.9788 149.09 16.9029C150.147 17.8182 150.966 18.9166 151.548 20.198C152.13 21.4795 152.421 22.8917 152.421 24.4346C152.421 25.9863 152.13 27.4116 151.548 28.7105C150.966 30.0006 150.147 31.1121 149.09 32.0448C148.043 32.9776 146.78 33.7055 145.303 34.2285C143.826 34.7428 142.197 35 140.415 35C138.624 35 136.991 34.7428 135.513 34.2285C134.045 33.7055 132.783 32.9776 131.726 32.0448C130.679 31.1121 129.864 30.0006 129.282 28.7105C128.7 27.4116 128.409 25.9863 128.409 24.4346ZM132.666 24.4346C132.666 25.4894 132.859 26.4396 133.244 27.2852C133.638 28.1308 134.179 28.8543 134.869 29.4558C135.567 30.0486 136.386 30.5062 137.326 30.8288C138.275 31.1513 139.305 31.3126 140.415 31.3126C141.525 31.3126 142.55 31.1513 143.49 30.8288C144.439 30.5062 145.258 30.0486 145.948 29.4558C146.637 28.8543 147.179 28.1308 147.573 27.2852C147.967 26.4396 148.164 25.4894 148.164 24.4346C148.164 23.3798 147.967 22.434 147.573 21.5971C147.179 20.7603 146.637 20.0542 145.948 19.4788C145.258 18.8948 144.439 18.4502 143.49 18.1451C142.55 17.84 141.525 17.6874 140.415 17.6874C139.305 17.6874 138.275 17.84 137.326 18.1451C136.386 18.4502 135.567 18.8948 134.869 19.4788C134.179 20.0542 133.638 20.7603 133.244 21.5971C132.859 22.434 132.666 23.3798 132.666 24.4346Z" fill="white"/>
<path d="M157.148 14.2746H161.405V24.8531L172.484 14.2746H177.936L167.596 24.0293L177.936 34.7123H172.269L164.534 26.9191L161.405 29.8611V34.7123H157.148V14.2746Z" fill="white"/>
<path d="M179.239 14.2746H183.496V25.533C183.496 26.457 183.625 27.2808 183.885 28.0044C184.145 28.7192 184.53 29.325 185.04 29.8219C185.559 30.3188 186.199 30.698 186.96 30.9595C187.721 31.2123 188.608 31.3387 189.619 31.3387C190.622 31.3387 191.504 31.2123 192.265 30.9595C193.035 30.698 193.675 30.3188 194.185 29.8219C194.704 29.325 195.094 28.7192 195.354 28.0044C195.613 27.2808 195.743 26.457 195.743 25.533V14.2746H200V26.0299C200 27.3724 199.767 28.5928 199.302 29.6912C198.836 30.7895 198.16 31.731 197.274 32.5156C196.388 33.3001 195.3 33.906 194.011 34.3331C192.73 34.7603 191.267 34.9738 189.619 34.9738C187.972 34.9738 186.504 34.7603 185.215 34.3331C183.934 33.906 182.851 33.3001 181.965 32.5156C181.078 31.731 180.402 30.7895 179.937 29.6912C179.471 28.5928 179.239 27.3724 179.239 26.0299V14.2746Z" fill="white"/>
<rect width="99" height="5" fill="#FF4757"/>
<rect x="104" width="96" height="5" fill="white"/>
<rect y="45" width="99" height="5" fill="#FF4757"/>
<rect x="104" y="45" width="96" height="5" fill="white"/>
</g>
<defs>
<clipPath id="clip0_1_19">
<rect width="200" height="50" fill="white"/>
</clipPath>
</defs>
</svg>
