<svg width="14" height="14" viewBox="0 0 14 14" fill="none" xmlns="http://www.w3.org/2000/svg">
<path d="M6.99999 9.91667C7.16527 9.91667 7.30381 9.86077 7.41561 9.74896C7.52742 9.63715 7.58332 9.49861 7.58332 9.33333V7C7.58332 6.83472 7.52742 6.69618 7.41561 6.58438C7.30381 6.47257 7.16527 6.41667 6.99999 6.41667C6.83471 6.41667 6.69617 6.47257 6.58436 6.58438C6.47256 6.69618 6.41666 6.83472 6.41666 7V9.33333C6.41666 9.49861 6.47256 9.63715 6.58436 9.74896C6.69617 9.86077 6.83471 9.91667 6.99999 9.91667ZM6.99999 5.25C7.16527 5.25 7.30381 5.1941 7.41561 5.08229C7.52742 4.97049 7.58332 4.83195 7.58332 4.66667C7.58332 4.50139 7.52742 4.36285 7.41561 4.25104C7.30381 4.13924 7.16527 4.08333 6.99999 4.08333C6.83471 4.08333 6.69617 4.13924 6.58436 4.25104C6.47256 4.36285 6.41666 4.50139 6.41666 4.66667C6.41666 4.83195 6.47256 4.97049 6.58436 5.08229C6.69617 5.1941 6.83471 5.25 6.99999 5.25ZM6.99999 12.8333C6.19305 12.8333 5.43471 12.6802 4.72499 12.374C4.01527 12.0677 3.39791 11.6521 2.87291 11.1271C2.34791 10.6021 1.93228 9.98472 1.62603 9.275C1.31978 8.56528 1.16666 7.80695 1.16666 7C1.16666 6.19306 1.31978 5.43472 1.62603 4.725C1.93228 4.01528 2.34791 3.39792 2.87291 2.87292C3.39791 2.34792 4.01527 1.93229 4.72499 1.62604C5.43471 1.31979 6.19305 1.16667 6.99999 1.16667C7.80693 1.16667 8.56527 1.31979 9.27499 1.62604C9.98471 1.93229 10.6021 2.34792 11.1271 2.87292C11.6521 3.39792 12.0677 4.01528 12.3739 4.725C12.6802 5.43472 12.8333 6.19306 12.8333 7C12.8333 7.80695 12.6802 8.56528 12.3739 9.275C12.0677 9.98472 11.6521 10.6021 11.1271 11.1271C10.6021 11.6521 9.98471 12.0677 9.27499 12.374C8.56527 12.6802 7.80693 12.8333 6.99999 12.8333Z" fill="#B0B0B0"/>
</svg>
