<svg width="19" height="19" viewBox="0 0 19 19" fill="none" xmlns="http://www.w3.org/2000/svg">
<path d="M3.95833 17.4167C3.52292 17.4167 3.15017 17.2616 2.8401 16.9516C2.53003 16.6415 2.375 16.2687 2.375 15.8333V4.75C2.375 4.31458 2.53003 3.94184 2.8401 3.63177C3.15017 3.3217 3.52292 3.16667 3.95833 3.16667H4.75V2.375C4.75 2.15069 4.82587 1.96267 4.9776 1.81094C5.12934 1.6592 5.31736 1.58333 5.54167 1.58333C5.76597 1.58333 5.95399 1.6592 6.10573 1.81094C6.25747 1.96267 6.33333 2.15069 6.33333 2.375V3.16667H12.6667V2.375C12.6667 2.15069 12.7425 1.96267 12.8943 1.81094C13.046 1.6592 13.234 1.58333 13.4583 1.58333C13.6826 1.58333 13.8707 1.6592 14.0224 1.81094C14.1741 1.96267 14.25 2.15069 14.25 2.375V3.16667H15.0417C15.4771 3.16667 15.8498 3.3217 16.1599 3.63177C16.47 3.94184 16.625 4.31458 16.625 4.75V9.79687C16.625 10.0212 16.5491 10.2092 16.3974 10.3609C16.2457 10.5127 16.0576 10.5885 15.8333 10.5885C15.609 10.5885 15.421 10.5127 15.2693 10.3609C15.1175 10.2092 15.0417 10.0212 15.0417 9.79687V7.91667H3.95833V15.8333H8.88646C9.11076 15.8333 9.29549 15.9092 9.44062 16.0609C9.58576 16.2127 9.65833 16.4007 9.65833 16.625C9.65833 16.8493 9.58247 17.0373 9.43073 17.1891C9.27899 17.3408 9.09097 17.4167 8.86667 17.4167H3.95833ZM13.0823 15.576L15.8927 12.7656C16.051 12.6073 16.2358 12.5281 16.4469 12.5281C16.658 12.5281 16.8427 12.6073 17.001 12.7656C17.1594 12.924 17.2385 13.112 17.2385 13.3297C17.2385 13.5474 17.1594 13.7354 17.001 13.8937L13.6562 17.2583C13.4979 17.4167 13.3099 17.4958 13.0922 17.4958C12.8745 17.4958 12.6865 17.4167 12.5281 17.2583L10.8458 15.576C10.6875 15.4177 10.6083 15.2297 10.6083 15.012C10.6083 14.7943 10.6875 14.6062 10.8458 14.4479C11.0042 14.2896 11.1922 14.2104 11.4099 14.2104C11.6276 14.2104 11.8156 14.2896 11.974 14.4479L13.0823 15.576Z" fill="#FF4757"/>
</svg>
