<svg width="19" height="19" viewBox="0 0 19 19" fill="none" xmlns="http://www.w3.org/2000/svg">
<path d="M10.2917 9.18333V6.33333C10.2917 6.10903 10.2158 5.92101 10.0641 5.76927C9.91232 5.61753 9.7243 5.54167 9.49999 5.54167C9.27569 5.54167 9.08767 5.61753 8.93593 5.76927C8.7842 5.92101 8.70833 6.10903 8.70833 6.33333V9.48021C8.70833 9.58576 8.72812 9.68802 8.7677 9.78698C8.80729 9.88594 8.86666 9.975 8.94583 10.0542L11.5583 12.6667C11.7035 12.8118 11.8882 12.8844 12.1125 12.8844C12.3368 12.8844 12.5215 12.8118 12.6667 12.6667C12.8118 12.5215 12.8844 12.3368 12.8844 12.1125C12.8844 11.8882 12.8118 11.7035 12.6667 11.5583L10.2917 9.18333ZM9.49999 17.4167C8.40486 17.4167 7.37569 17.2089 6.41249 16.7932C5.4493 16.3776 4.61145 15.8135 3.89895 15.101C3.18645 14.3885 2.62239 13.5507 2.20677 12.5875C1.79114 11.6243 1.58333 10.5951 1.58333 9.5C1.58333 8.40486 1.79114 7.37569 2.20677 6.4125C2.62239 5.4493 3.18645 4.61146 3.89895 3.89896C4.61145 3.18646 5.4493 2.62239 6.41249 2.20677C7.37569 1.79114 8.40486 1.58333 9.49999 1.58333C10.5951 1.58333 11.6243 1.79114 12.5875 2.20677C13.5507 2.62239 14.3885 3.18646 15.101 3.89896C15.8135 4.61146 16.3776 5.4493 16.7932 6.4125C17.2088 7.37569 17.4167 8.40486 17.4167 9.5C17.4167 10.5951 17.2088 11.6243 16.7932 12.5875C16.3776 13.5507 15.8135 14.3885 15.101 15.101C14.3885 15.8135 13.5507 16.3776 12.5875 16.7932C11.6243 17.2089 10.5951 17.4167 9.49999 17.4167Z" fill="#FF4757"/>
</svg>
