<svg width="19" height="19" viewBox="0 0 19 19" fill="none" xmlns="http://www.w3.org/2000/svg">
<path d="M3.95834 15.0417C3.73403 15.0417 3.54601 14.9658 3.39428 14.8141C3.24254 14.6623 3.16667 14.4743 3.16667 14.25C3.16667 14.0257 3.24254 13.8377 3.39428 13.6859C3.54601 13.5342 3.73403 13.4583 3.95834 13.4583H4.75001V7.91667C4.75001 6.82153 5.07987 5.84844 5.73959 4.9974C6.39931 4.14636 7.25695 3.58889 8.31251 3.325V2.77084C8.31251 2.44097 8.42796 2.16059 8.65886 1.92969C8.88976 1.69879 9.17014 1.58334 9.50001 1.58334C9.82987 1.58334 10.1102 1.69879 10.3412 1.92969C10.5721 2.16059 10.6875 2.44097 10.6875 2.77084V3.325C11.7431 3.58889 12.6007 4.14636 13.2604 4.9974C13.9201 5.84844 14.25 6.82153 14.25 7.91667V13.4583H15.0417C15.266 13.4583 15.454 13.5342 15.6057 13.6859C15.7575 13.8377 15.8333 14.0257 15.8333 14.25C15.8333 14.4743 15.7575 14.6623 15.6057 14.8141C15.454 14.9658 15.266 15.0417 15.0417 15.0417H3.95834ZM9.50001 17.4167C9.06459 17.4167 8.69185 17.2616 8.38178 16.9516C8.07171 16.6415 7.91667 16.2688 7.91667 15.8333H11.0833C11.0833 16.2688 10.9283 16.6415 10.6182 16.9516C10.3082 17.2616 9.93542 17.4167 9.50001 17.4167Z" fill="#FF4757"/>
</svg>
