<svg width="14" height="14" viewBox="0 0 14 14" fill="none" xmlns="http://www.w3.org/2000/svg">
<path d="M7.00001 7C6.35834 7 5.80904 6.77153 5.35209 6.31458C4.89515 5.85764 4.66668 5.30833 4.66668 4.66667C4.66668 4.025 4.89515 3.4757 5.35209 3.01875C5.80904 2.56181 6.35834 2.33333 7.00001 2.33333C7.64168 2.33333 8.19098 2.56181 8.64793 3.01875C9.10487 3.4757 9.33334 4.025 9.33334 4.66667C9.33334 5.30833 9.10487 5.85764 8.64793 6.31458C8.19098 6.77153 7.64168 7 7.00001 7ZM2.33334 10.5V10.0333C2.33334 9.70278 2.41841 9.39896 2.58855 9.12188C2.75869 8.84479 2.98473 8.63333 3.26668 8.4875C3.86945 8.18611 4.48195 7.96007 5.10418 7.80938C5.7264 7.65868 6.35834 7.58333 7.00001 7.58333C7.64168 7.58333 8.27362 7.65868 8.89584 7.80938C9.51807 7.96007 10.1306 8.18611 10.7333 8.4875C11.0153 8.63333 11.2413 8.84479 11.4115 9.12188C11.5816 9.39896 11.6667 9.70278 11.6667 10.0333V10.5C11.6667 10.8208 11.5524 11.0955 11.324 11.324C11.0955 11.5524 10.8208 11.6667 10.5 11.6667H3.50001C3.17918 11.6667 2.90452 11.5524 2.67605 11.324C2.44758 11.0955 2.33334 10.8208 2.33334 10.5Z" fill="#B0B0B0"/>
</svg>
