<svg width="14" height="14" viewBox="0 0 14 14" fill="none" xmlns="http://www.w3.org/2000/svg">
<path d="M6.31457 12.8333C6.05207 12.8333 5.82603 12.7458 5.63645 12.5708C5.44686 12.3958 5.33263 12.1819 5.29374 11.9292L5.16249 10.9667C5.0361 10.9181 4.917 10.8597 4.8052 10.7917C4.69339 10.7236 4.58402 10.6507 4.47707 10.5729L3.57291 10.9521C3.32985 11.059 3.08679 11.0688 2.84374 10.9813C2.60068 10.8938 2.4111 10.7382 2.27499 10.5146L1.58957 9.31875C1.45346 9.09514 1.41457 8.85695 1.47291 8.60417C1.53124 8.35139 1.66249 8.14236 1.86666 7.97708L2.63957 7.39375C2.62985 7.3257 2.62499 7.26007 2.62499 7.19688V6.80313C2.62499 6.73993 2.62985 6.67431 2.63957 6.60625L1.86666 6.02292C1.66249 5.85764 1.53124 5.64861 1.47291 5.39583C1.41457 5.14306 1.45346 4.90486 1.58957 4.68125L2.27499 3.48542C2.4111 3.26181 2.60068 3.10625 2.84374 3.01875C3.08679 2.93125 3.32985 2.94097 3.57291 3.04792L4.47707 3.42708C4.58402 3.34931 4.69582 3.27639 4.81249 3.20833C4.92916 3.14028 5.04582 3.08195 5.16249 3.03333L5.29374 2.07083C5.33263 1.81806 5.44686 1.60417 5.63645 1.42917C5.82603 1.25417 6.05207 1.16667 6.31457 1.16667H7.6854C7.9479 1.16667 8.17395 1.25417 8.36353 1.42917C8.55311 1.60417 8.66735 1.81806 8.70624 2.07083L8.83749 3.03333C8.96388 3.08195 9.08297 3.14028 9.19478 3.20833C9.30659 3.27639 9.41596 3.34931 9.5229 3.42708L10.4271 3.04792C10.6701 2.94097 10.9132 2.93125 11.1562 3.01875C11.3993 3.10625 11.5889 3.26181 11.725 3.48542L12.4104 4.68125C12.5465 4.90486 12.5854 5.14306 12.5271 5.39583C12.4687 5.64861 12.3375 5.85764 12.1333 6.02292L11.3604 6.60625C11.3701 6.67431 11.375 6.73993 11.375 6.80313V7.19688C11.375 7.26007 11.3653 7.3257 11.3458 7.39375L12.1187 7.97708C12.3229 8.14236 12.4542 8.35139 12.5125 8.60417C12.5708 8.85695 12.5319 9.09514 12.3958 9.31875L11.6958 10.5146C11.5597 10.7382 11.3701 10.8938 11.1271 10.9813C10.884 11.0688 10.641 11.059 10.3979 10.9521L9.5229 10.5729C9.41596 10.6507 9.30415 10.7236 9.18749 10.7917C9.07082 10.8597 8.95415 10.9181 8.83749 10.9667L8.70624 11.9292C8.66735 12.1819 8.55311 12.3958 8.36353 12.5708C8.17395 12.7458 7.9479 12.8333 7.6854 12.8333H6.31457ZM7.02915 9.04167C7.59304 9.04167 8.07429 8.84236 8.4729 8.44375C8.87152 8.04514 9.07082 7.56389 9.07082 7C9.07082 6.43611 8.87152 5.95486 8.4729 5.55625C8.07429 5.15764 7.59304 4.95833 7.02915 4.95833C6.45554 4.95833 5.97186 5.15764 5.57811 5.55625C5.18436 5.95486 4.98749 6.43611 4.98749 7C4.98749 7.56389 5.18436 8.04514 5.57811 8.44375C5.97186 8.84236 6.45554 9.04167 7.02915 9.04167Z" fill="#B0B0B0"/>
</svg>
